HIERARCHY
ROOT Hips
{
	OFFSET -3.958830 18.904000 13.208200
	CHANNELS 6 Xposition Yposition Zposition Zrotation Yrotation Xrotation 
	JOINT LHipJoint
	{
		OFFSET 0.000000 0.000000 0.000000
		CHANNELS 3 Zrotation Yrotation Xrotation
		JOINT LeftUpLeg
		{
			OFFSET 1.800000 -1.400000 0.085000
			CHANNELS 3 Zrotation Yrotation Xrotation
			JOINT LeftLeg
			{
				OFFSET 2.215000 -6.000000 0.000000
				CHANNELS 3 Zrotation Yrotation Xrotation
				JOINT LeftFoot
				{
					OFFSET 2.500000 -6.900000 0.000000
					CHANNELS 3 Zrotation Yrotation Xrotation
					JOINT LeftToeBase
					{
						OFFSET 0.200000 -0.500000 1.950000
						CHANNELS 3 Zrotation Yrotation Xrotation
						End Site
						{
							OFFSET 0.000000 0.000000 0.000000
						}
					}
				}
			}
		}
	}
	JOINT RHipJoint
	{
		OFFSET 0.000000 0.000000 0.000000
		CHANNELS 3 Zrotation Yrotation Xrotation
		JOINT RightUpLeg
		{
			OFFSET -1.800000 -1.400000 0.085000
			CHANNELS 3 Zrotation Yrotation Xrotation
			JOINT RightLeg
			{
				OFFSET -2.215000 -6.000000 0.000000
				CHANNELS 3 Zrotation Yrotation Xrotation
				JOINT RightFoot
				{
					OFFSET -2.500000 -6.900000 0.000000
					CHANNELS 3 Zrotation Yrotation Xrotation
					JOINT RightToeBase
					{
						OFFSET -0.200000 -0.500000 1.950000
						CHANNELS 3 Zrotation Yrotation Xrotation
						End Site
						{
							OFFSET 0.000000 0.000000 0.000000
						}
					}
				}
			}
		}
	}
	JOINT LowerBack
	{
		OFFSET 0.000000 0.000000 0.000000
		CHANNELS 3 Zrotation Yrotation Xrotation
		JOINT Spine
		{
			OFFSET -0.087000 1.940000 -0.288900
			CHANNELS 3 Zrotation Yrotation Xrotation
			JOINT Spine1
			{
				OFFSET 0.000000 1.950000 0.060000
				CHANNELS 3 Zrotation Yrotation Xrotation
				JOINT Neck
				{
					OFFSET 0.000000 0.000000 0.000000
					CHANNELS 3 Zrotation Yrotation Xrotation
					JOINT Neck1
					{
						OFFSET 0.000000 1.600000 0.340000
						CHANNELS 3 Zrotation Yrotation Xrotation
						JOINT Head
						{
							OFFSET 0.000000 1.667000 -0.240000
							CHANNELS 3 Zrotation Yrotation Xrotation
							End Site
							{
								OFFSET 0.000000 0.000000 0.000000
							}
						}
					}
				}
				JOINT LeftShoulder
				{
					OFFSET 0.000000 0.000000 0.000000
					CHANNELS 3 Zrotation Yrotation Xrotation
					JOINT LeftArm
					{
						OFFSET 2.700000 1.550000 -0.730000
						CHANNELS 3 Zrotation Yrotation Xrotation
						JOINT LeftForeArm
						{
							OFFSET 5.450000 0.000000 0.000000
							CHANNELS 3 Zrotation Yrotation Xrotation
							JOINT LeftHand
							{
								OFFSET 3.450000 0.000000 0.000000
								CHANNELS 3 Zrotation Yrotation Xrotation
								JOINT LeftHandIndex1
								{
									OFFSET 0.750000 0.000000 0.000000
									CHANNELS 3 Zrotation Yrotation Xrotation
									End Site
									{
										OFFSET 0.000000 0.000000 0.000000
									}
								}
							}
						}
					}
				}
				JOINT RightShoulder
				{
					OFFSET 0.000000 0.000000 0.000000
					CHANNELS 3 Zrotation Yrotation Xrotation
					JOINT RightArm
					{
						OFFSET -2.700000 1.550000 -0.730000
						CHANNELS 3 Zrotation Yrotation Xrotation
						JOINT RightForeArm
						{
							OFFSET -5.450000 0.000000 0.000000
							CHANNELS 3 Zrotation Yrotation Xrotation
							JOINT RightHand
							{
								OFFSET -3.450000 0.000000 0.000000
								CHANNELS 3 Zrotation Yrotation Xrotation
								JOINT RightHandIndex1
								{
									OFFSET -0.750000 0.000000 0.000000
									CHANNELS 3 Zrotation Yrotation Xrotation
									End Site
									{
										OFFSET 0.000000 0.000000 0.000000
									}
								}
							}
						}
					}
				}
			}
		}
	}
}
MOTION
Frames: 14
Frame Time: 0.016667
-0.469400 17.705020 -1.613880 3.985274 3.461677 -36.832876 -16.855529 15.059328 3.119700 6.536303 4.377851 22.502525 -7.620575 10.633130 20.873592 0.627338 7.853215 1.807617 0.724990 0.636330 0.738590 16.881534 -8.595037 2.105174 -12.959351 -1.820247 21.584362 8.611177 -8.498990 13.337470 -1.296681 -5.933454 2.095470 0.274530 -0.373760 0.142650 0.784180 -8.281975 -6.964397 -12.023888 5.873140 20.498452 5.554148 4.376382 40.972951 3.578651 -0.879940 -15.155288 -11.436450 4.749872 60.688675 1.902130 0.060560 -29.989630 -5.118556 -30.167783 11.663158 -11.904468 -10.362460 -19.834835 111.426224 -17.354790 -47.228761 -3.600399 2.763721 0.872860 -0.445350 0.555100 -0.058690 -3.681940 34.782455 15.008585 25.717687 0.114546 -30.771247 -117.366521 3.000950 -39.138887 2.331086 -2.070528 0.009760 0.262670 -0.131310 -0.243740 
-0.471540 17.682730 -1.620770 3.947479 4.107527 -36.919508 -16.955417 15.250307 3.161313 6.614191 4.184111 21.985447 -7.514067 10.638196 21.559393 0.591536 7.892001 1.753734 0.757300 0.664650 0.765610 16.753322 -8.452809 2.179997 -12.948401 -1.839442 22.556202 8.565511 -8.344777 12.252603 -1.329238 -5.899474 2.070440 0.294620 -0.410100 0.147200 1.098037 -8.720410 -7.243314 -11.916967 6.684726 21.805469 5.571489 4.865486 39.195777 4.698220 -0.402140 -16.354234 -12.851169 4.926687 64.879000 2.058860 -1.881130 -30.967340 -11.438983 -33.779724 11.403128 -7.010969 -10.726714 -19.246156 115.944436 -13.980788 -44.198195 -3.662434 2.744358 0.913890 -0.483940 0.589160 -0.077940 0.561569 38.236841 15.430776 23.575323 -3.448978 -31.529132 -122.446093 -4.099538 -31.010720 2.407714 -2.233903 0.019700 0.280490 -0.117690 -0.249740 
-0.451670 17.629690 -1.597020 3.689711 2.999996 -36.565147 -17.127731 15.779859 3.323768 6.821898 4.003724 21.306718 -6.586715 10.187386 21.276036 0.479176 7.762303 1.686312 0.908470 0.796320 0.854860 16.493807 -8.158473 2.324087 -12.214944 -1.848849 23.240322 8.294498 -7.940247 10.915120 -1.440253 -5.639934 2.064751 0.368220 -0.533520 0.157340 1.618994 -9.901361 -8.078225 -9.433026 6.612261 24.453364 4.215010 4.906880 32.629255 8.313305 -0.413554 -21.699379 -21.649252 12.425678 78.958099 3.315770 -5.737390 -33.270290 -26.719502 -38.164099 12.115519 -1.060366 -7.703186 -15.818365 125.054545 -8.196766 -37.859310 -3.693560 2.794623 1.097270 -0.643580 0.739670 -0.074550 10.159312 44.288627 16.472601 14.977307 -8.669362 -27.876282 -132.196548 -12.947486 -13.962015 2.646438 -2.471263 0.050900 0.344490 -0.128080 -0.257620 
-0.402570 17.597930 -1.535480 2.335286 1.003472 -32.898770 -16.718017 15.906470 3.588799 6.272139 2.941674 17.640555 -6.458952 9.498452 20.871789 0.142560 7.184266 1.663600 1.238420 1.177610 1.080490 16.631304 -8.810148 2.616730 -10.797177 -1.945619 19.089546 8.157615 -7.443656 11.355137 -1.548036 -5.084852 2.145395 0.620540 -0.723130 0.141150 0.733405 -9.365790 -8.672660 -2.916922 3.472980 23.429864 1.692164 4.526552 15.630070 11.511632 1.217846 -27.016372 -23.995655 22.217838 103.698071 4.484860 -6.056930 -31.477700 -44.450880 -33.520952 11.424951 -1.564483 -6.106121 -5.457195 136.597971 -4.215682 -28.946530 -3.348377 2.881271 1.279080 -0.796060 0.951250 -0.064180 24.586957 39.787339 16.484616 7.807230 -7.101558 -16.572539 -141.360623 -10.226616 -2.957898 2.508747 -2.417380 0.103880 0.436720 -0.212600 -0.297800 
-0.337790 17.620360 -1.397780 -1.322815 -0.266795 -21.568917 -16.041282 15.809658 3.691692 5.808656 0.533965 6.259474 -6.629559 8.346003 21.229802 -0.349679 6.141039 2.026711 1.165160 1.067670 1.015880 16.938241 -10.130026 3.061622 -5.773319 -1.500962 6.923913 7.323885 -6.133368 12.235462 -1.215345 -3.915760 2.593514 0.633770 -0.547420 0.117220 -0.533256 -7.172186 -9.007495 7.448035 0.433156 12.677266 -2.981266 4.742073 -12.835145 11.902529 0.002242 -22.882166 -21.363205 23.418892 116.881256 3.913680 -5.159390 -19.861720 -40.385807 -14.193358 5.803527 -18.200050 -7.235142 7.921647 144.102308 -7.215892 -22.157993 -3.049093 2.737833 1.236580 -0.661760 0.831700 -0.041940 21.603988 21.211031 10.075198 20.663917 -2.603390 -7.078541 -146.905048 -0.733625 1.739841 2.042728 -2.247765 -0.008240 0.523170 -0.138660 -0.301860 
-0.345050 17.543880 -1.689000 -0.223870 -1.953157 -37.084475 -16.397800 16.035085 3.639451 8.823686 2.328606 20.357427 -6.399264 10.138548 22.197362 0.336937 7.745269 1.606441 0.982790 0.857810 0.908410 16.917663 -8.703140 2.809011 -8.017431 -2.743409 21.809428 6.242086 -7.515584 13.161859 -1.539505 -5.315901 2.139518 0.415410 -0.553850 0.137140 -0.117097 -9.639504 -8.678291 3.798767 -0.265428 34.269011 -4.688943 3.990563 20.080845 10.650747 0.070872 -29.233305 -28.045581 22.334965 90.430729 5.430670 -5.163690 -30.391460 -36.550926 -38.154396 12.726353 -0.685254 -2.871727 -10.316803 138.202110 0.813427 -29.945837 -3.567683 3.014489 1.235700 -0.715090 0.822850 -0.078320 16.889977 45.024823 17.878942 10.540858 -6.925345 -19.942095 -144.927719 -13.238797 -8.320214 2.512252 -2.560459 0.024320 0.439130 -0.109830 -0.269980 
-0.342080 17.547330 -1.738620 -1.370517 -1.562183 -38.144618 -15.862199 15.030984 3.473558 9.007915 2.511934 21.964300 -6.063066 10.114153 21.461810 0.591736 7.694089 1.840600 0.526370 0.344980 0.542570 17.464317 -9.593941 2.904174 -7.979582 -3.040809 21.179376 6.126936 -7.949081 14.519643 -1.327403 -5.696684 2.199541 0.063890 -0.289630 0.135540 -1.523373 -6.511819 -8.244259 7.175879 -1.292800 34.830147 -5.448414 1.008128 31.022876 7.136916 -4.955950 -23.826419 -27.955726 13.167028 65.783296 5.568690 -4.736420 -27.544350 -18.621683 -38.606426 13.398272 -5.151865 -0.880285 -19.023748 129.162803 -2.033588 -37.456518 -3.850238 2.931874 0.987900 -0.521110 0.532410 -0.091360 5.429503 44.800362 18.247308 18.021391 -7.941233 -27.388930 -137.302884 -8.535630 -32.169319 2.528022 -2.394350 -0.027970 0.305820 0.026230 -0.185860 
-0.328150 17.607830 -1.881220 -2.779946 -0.658812 -38.210917 -15.477467 14.464508 3.251044 8.845559 2.228962 20.606828 -4.764903 9.673125 22.173482 0.714884 7.348660 2.078229 0.378140 0.243830 0.437660 17.857300 -10.329519 2.837059 -6.947182 -2.920061 17.647599 5.140087 -7.987763 17.997632 -1.200028 -5.705338 2.323638 -0.047240 -0.180340 0.116460 -2.580570 -4.513051 -7.828126 9.728051 -2.311467 37.255910 -5.636913 -0.357449 32.532745 4.838913 -5.548270 -18.205006 -20.639752 6.563411 54.004146 3.480390 -2.680520 -25.964700 -8.938168 -33.525894 12.652946 -8.680083 -2.112897 -20.401554 122.328015 -9.521034 -45.128638 -3.779664 2.857975 0.774320 -0.398150 0.421520 -0.059480 0.023552 37.658749 16.944962 25.467783 -5.876629 -29.819244 -128.136328 4.170871 -51.507711 2.414164 -2.001599 0.002400 0.258160 -0.002520 -0.118210 
-0.310440 17.664370 -2.080560 -3.844053 -1.263072 -38.373362 -15.290231 14.401387 3.117726 8.737367 1.807319 18.228595 -3.528965 9.360479 24.112402 0.665690 7.256959 2.139269 0.246290 0.082220 0.323200 18.021025 -10.784455 2.657698 -5.295557 -1.959924 11.942532 3.801562 -8.085065 25.004988 -1.048615 -5.752698 2.316254 -0.118840 -0.081500 0.154390 -3.046244 -3.726026 -7.534940 11.466093 -3.880660 42.336318 -6.156806 -1.407184 31.544898 4.028774 -6.146362 -15.409055 -17.902661 3.761980 45.126896 2.640040 -2.346080 -23.723450 -1.826107 -27.085426 11.009331 -11.737719 -2.612504 -20.951781 112.385814 -20.788048 -51.294518 -3.814022 2.839450 0.684460 -0.296140 0.306470 -0.077200 -5.524714 30.703856 15.391782 28.380559 -6.173166 -29.756880 -118.731211 21.332635 -65.311022 2.385415 -1.736923 -0.025720 0.189120 0.065620 -0.107030 
-0.293800 17.692880 -2.268150 -4.990942 -1.211221 -38.001185 -15.251882 14.580157 2.938519 9.068354 1.588546 15.008409 -1.804568 8.953517 26.402942 0.710430 7.071517 2.250677 0.226010 0.085780 0.278370 18.039497 -10.956383 2.519710 -3.933834 -0.151212 4.917866 3.949150 -8.562346 32.899559 -0.977033 -6.047104 2.238472 -0.125110 -0.031480 0.155030 -3.121810 -3.616177 -7.318130 12.159923 -5.195664 47.966692 -6.148970 -2.290034 29.986205 4.171945 -6.872949 -13.871374 -15.944131 1.834143 36.369556 0.122820 -1.711750 -21.028780 5.549365 -17.268913 9.360024 -17.413445 -3.392006 -18.478860 104.711259 -33.656562 -59.318048 -3.679829 2.961228 0.522280 -0.217160 0.224050 -0.030760 -13.203025 21.676862 13.011561 29.463447 -4.639327 -25.996102 -108.928760 38.832550 -72.915887 2.339844 -1.602778 0.013260 0.127630 0.016990 -0.058810 
-0.247180 17.724560 -2.454620 -7.280014 -0.000242 -37.012419 -15.167620 14.665778 2.703453 10.046802 1.064050 11.270905 0.022561 8.228387 28.184071 0.698482 6.750254 2.362830 0.232310 0.125740 0.312490 18.085766 -11.064306 2.625838 -2.471010 1.737848 -2.518033 4.859910 -9.540161 39.214397 -1.041410 -6.423283 2.098765 -0.144710 -0.064320 0.169740 -3.321086 -3.297050 -7.270001 14.175534 -7.778888 52.814639 -7.119346 -3.979923 27.689107 4.992007 -5.407860 -13.482064 -12.057780 0.340468 34.530976 -2.851700 -0.223090 -22.347370 8.089086 -11.972833 8.201226 -14.992230 1.453243 -15.723799 103.007562 -48.742451 -71.087375 -3.522974 2.785286 0.469810 -0.209660 0.258990 -0.016590 -17.032527 15.274802 11.876516 26.349412 -6.542119 -22.015523 -99.328008 55.903138 -74.021839 2.161633 -0.683409 0.064760 0.090450 -0.043900 -0.038300 
-0.186930 17.729160 -2.661500 -10.525622 0.517908 -35.741573 -14.928418 14.388731 2.324346 11.498525 0.327346 6.843184 1.747492 7.435590 30.529221 0.643855 6.449608 2.446137 0.286610 0.224540 0.320950 18.304065 -11.222480 3.043265 -0.857194 4.328252 -11.422254 5.844246 -11.282833 46.860002 -1.232781 -7.334590 1.764235 -0.104490 -0.071580 0.180640 -3.958602 -2.162145 -7.368242 20.758232 -12.756066 57.118516 -9.691356 -6.366877 23.762421 5.568243 -6.222370 -12.141752 -11.908938 0.101229 30.309472 -2.837690 0.100990 -23.425420 11.519840 -8.811019 8.745624 -13.454495 3.953611 -12.654856 103.533260 -62.224576 -84.182341 -3.397957 2.363759 0.395920 -0.202720 0.267090 0.029060 -20.845981 10.961982 7.736701 23.458947 -12.441493 -27.678244 -73.102224 87.063477 -64.983188 1.135078 2.435100 0.117770 0.056930 -0.113130 0.006090 
-0.128400 17.692840 -2.804890 -13.835070 1.445288 -30.777422 -14.859227 14.060206 1.849487 12.136650 -0.448659 -1.112526 3.679618 6.232961 32.822589 0.424765 5.934900 2.500902 0.390360 0.351520 0.361760 18.462940 -10.822531 3.719831 -0.354517 7.751870 -23.492859 7.752465 -13.819012 53.153766 -1.513070 -8.285379 1.402862 -0.059550 -0.173690 0.201130 -4.283661 -1.744071 -7.434085 25.779306 -17.160063 54.553191 -11.469312 -8.228571 21.738725 5.540683 -6.955186 -13.027938 -14.619342 1.019199 33.013405 -2.215960 0.183180 -28.199780 8.226462 -7.151460 7.301557 -10.251339 7.008901 -10.886810 138.506533 -73.095518 -140.703787 -3.105127 3.812876 0.486980 -0.293750 0.367260 0.053520 -17.665999 9.029808 10.470362 12.148174 -12.510002 -12.579376 61.870982 88.757207 44.630472 2.238767 -2.077705 0.163440 0.033600 -0.162050 0.001190 
-0.048550 17.656180 -2.921130 -16.881152 -0.735096 -25.714496 -14.719691 13.340123 1.396400 13.626742 -0.600961 -7.071731 4.722942 5.550416 33.111563 0.206164 5.568037 2.552692 0.438220 0.393910 0.403910 18.775389 -10.237518 4.791910 -0.123933 12.623543 -36.085716 8.705519 -16.781814 61.020535 -1.900085 -9.774018 0.916098 -0.022600 -0.179380 0.209460 -4.872387 -0.814172 -7.733680 31.602006 -22.349958 52.673938 -15.896237 -10.000973 18.949357 5.936654 -9.032666 -12.647146 -18.892864 3.810903 32.639658 -2.010030 0.167690 -31.120160 6.747143 -6.617986 7.071382 -12.551784 10.057577 -11.487014 -153.925260 -74.080020 132.331166 -2.997592 3.483565 0.543690 -0.326850 0.402280 0.044280 -16.876003 8.915329 8.750093 9.011816 -7.154545 -10.908704 93.009215 77.826806 58.199868 3.294413 -0.181506 0.155570 0.093120 -0.146300 -0.004730 
